<mxfile host="65bd71144e">
    <diagram id="S8bHiH4VoKw6E6staCxb" name="Page-1">
        <mxGraphModel dx="541" dy="287" grid="1" gridSize="10" guides="1" tooltips="1" connect="1" arrows="1" fold="1" page="1" pageScale="1" pageWidth="827" pageHeight="1169" math="0" shadow="0">
            <root>
                <mxCell id="0"/>
                <mxCell id="1" parent="0"/>
                <mxCell id="E_RoyRnaRvmdLswqeIwX-4" style="edgeStyle=orthogonalEdgeStyle;rounded=0;orthogonalLoop=1;jettySize=auto;html=1;exitX=0;exitY=0.5;exitDx=0;exitDy=0;startArrow=classic;startFill=1;endArrow=none;endFill=0;" parent="1" source="E_RoyRnaRvmdLswqeIwX-3" edge="1">
                    <mxGeometry relative="1" as="geometry">
                        <mxPoint x="120.00000000000011" y="360.344827586207" as="targetPoint"/>
                    </mxGeometry>
                </mxCell>
                <mxCell id="E_RoyRnaRvmdLswqeIwX-9" style="edgeStyle=orthogonalEdgeStyle;rounded=0;orthogonalLoop=1;jettySize=auto;html=1;exitX=1;exitY=0.5;exitDx=0;exitDy=0;entryX=0;entryY=0.5;entryDx=0;entryDy=0;startArrow=none;startFill=0;endArrow=classic;endFill=1;" parent="1" source="E_RoyRnaRvmdLswqeIwX-3" target="E_RoyRnaRvmdLswqeIwX-8" edge="1">
                    <mxGeometry relative="1" as="geometry"/>
                </mxCell>
                <mxCell id="E_RoyRnaRvmdLswqeIwX-3" value="+/-" style="ellipse;whiteSpace=wrap;html=1;aspect=fixed;" parent="1" vertex="1">
                    <mxGeometry x="230" y="340" width="40" height="40" as="geometry"/>
                </mxCell>
                <mxCell id="E_RoyRnaRvmdLswqeIwX-6" value="Señal del&lt;br&gt;selector" style="text;html=1;align=center;verticalAlign=middle;resizable=0;points=[];autosize=1;strokeColor=none;fillColor=none;" parent="1" vertex="1">
                    <mxGeometry x="50" y="405" width="70" height="30" as="geometry"/>
                </mxCell>
                <mxCell id="E_RoyRnaRvmdLswqeIwX-7" value="Referencia" style="text;html=1;align=center;verticalAlign=middle;resizable=0;points=[];autosize=1;strokeColor=none;fillColor=none;" parent="1" vertex="1">
                    <mxGeometry x="40" y="345" width="80" height="30" as="geometry"/>
                </mxCell>
                <mxCell id="E_RoyRnaRvmdLswqeIwX-11" style="edgeStyle=orthogonalEdgeStyle;rounded=0;orthogonalLoop=1;jettySize=auto;html=1;exitX=1;exitY=0.5;exitDx=0;exitDy=0;entryX=0;entryY=0.25;entryDx=0;entryDy=0;startArrow=none;startFill=0;endArrow=classic;endFill=1;" parent="1" source="E_RoyRnaRvmdLswqeIwX-8" target="E_RoyRnaRvmdLswqeIwX-10" edge="1">
                    <mxGeometry relative="1" as="geometry"/>
                </mxCell>
                <mxCell id="E_RoyRnaRvmdLswqeIwX-8" value="Controlador&lt;br&gt;PI" style="rounded=1;whiteSpace=wrap;html=1;" parent="1" vertex="1">
                    <mxGeometry x="313" y="330" width="100" height="60" as="geometry"/>
                </mxCell>
                <mxCell id="E_RoyRnaRvmdLswqeIwX-18" style="edgeStyle=orthogonalEdgeStyle;rounded=0;orthogonalLoop=1;jettySize=auto;html=1;exitX=1;exitY=0.5;exitDx=0;exitDy=0;startArrow=none;startFill=0;endArrow=classic;endFill=1;" parent="1" source="E_RoyRnaRvmdLswqeIwX-10" edge="1">
                    <mxGeometry relative="1" as="geometry">
                        <mxPoint x="620" y="374.8275862068966" as="targetPoint"/>
                    </mxGeometry>
                </mxCell>
                <mxCell id="E_RoyRnaRvmdLswqeIwX-10" value="Comparador" style="rounded=1;whiteSpace=wrap;html=1;" parent="1" vertex="1">
                    <mxGeometry x="480" y="345" width="90" height="60" as="geometry"/>
                </mxCell>
                <mxCell id="E_RoyRnaRvmdLswqeIwX-19" style="edgeStyle=orthogonalEdgeStyle;rounded=0;orthogonalLoop=1;jettySize=auto;html=1;exitX=0.5;exitY=0;exitDx=0;exitDy=0;exitPerimeter=0;entryX=0;entryY=0.75;entryDx=0;entryDy=0;startArrow=none;startFill=0;endArrow=classic;endFill=1;" parent="1" source="E_RoyRnaRvmdLswqeIwX-14" target="E_RoyRnaRvmdLswqeIwX-10" edge="1">
                    <mxGeometry relative="1" as="geometry"/>
                </mxCell>
                <mxCell id="E_RoyRnaRvmdLswqeIwX-14" value="" style="pointerEvents=1;verticalLabelPosition=bottom;shadow=0;dashed=0;align=center;html=1;verticalAlign=top;shape=mxgraph.electrical.signal_sources.source;aspect=fixed;points=[[0.5,0,0],[1,0.5,0],[0.5,1,0],[0,0.5,0]];elSignalType=sawtooth;" parent="1" vertex="1">
                    <mxGeometry x="420" y="430" width="40" height="40" as="geometry"/>
                </mxCell>
                <mxCell id="E_RoyRnaRvmdLswqeIwX-17" value="125kHz" style="text;html=1;align=center;verticalAlign=middle;resizable=0;points=[];autosize=1;strokeColor=none;fillColor=none;" parent="1" vertex="1">
                    <mxGeometry x="360" y="435" width="60" height="30" as="geometry"/>
                </mxCell>
                <mxCell id="E_RoyRnaRvmdLswqeIwX-20" value="Señal PWM" style="text;html=1;align=center;verticalAlign=middle;resizable=0;points=[];autosize=1;strokeColor=none;fillColor=none;" parent="1" vertex="1">
                    <mxGeometry x="610" y="360" width="90" height="30" as="geometry"/>
                </mxCell>
                <mxCell id="zaFaRbMKrRMavXVSdAxx-1" value="Amplificador&lt;br&gt;de error" style="text;html=1;align=center;verticalAlign=middle;resizable=0;points=[];autosize=1;strokeColor=none;fillColor=none;" parent="1" vertex="1">
                    <mxGeometry x="205" y="290" width="90" height="40" as="geometry"/>
                </mxCell>
                <mxCell id="13" style="edgeStyle=orthogonalEdgeStyle;rounded=0;html=1;entryX=0.5;entryY=1;entryDx=0;entryDy=0;" parent="1" target="E_RoyRnaRvmdLswqeIwX-3" edge="1">
                    <mxGeometry relative="1" as="geometry">
                        <mxPoint x="120" y="420" as="sourcePoint"/>
                    </mxGeometry>
                </mxCell>
            </root>
        </mxGraphModel>
    </diagram>
</mxfile>